# xmcd CD database file
#
# Track frame offsets:
#	150
#	16134
#	38240
#	59975
#	86361
#	101316
#	128750
#	156841
#	179612
#	202383
#
# Disc length: 3008 seconds
#
# Revision: 0
# Processed by: cddbd v1.5.2PL0 Copyright (c) Steve Scherf et al.
# Submitted via: CDex 1.70beta2
#
DISCID=880bbe0a
DTITLE=Jazz Corners All Stars  featuring Bob James -  All Stars  featuring Bob James
DYEAR=2010
DGENRE=Jazz
TTITLE0=Wishing on the Moon
TTITLE1=Heaven on Earth
TTITLE2=Fog or Smoke
TTITLE3=Rest Here
TTITLE4=Just Like Strangers
TTITLE5=Your Man
TTITLE6=Shelter in Your Heart
TTITLE7=Misty Dale
TTITLE8=Tomorrow'  ll Be Ours
TTITLE9=Throw It Back
EXTD=YEAR: 2010
EXTT0=
EXTT1=
EXTT2=
EXTT3=
EXTT4=
EXTT5=
EXTT6=
EXTT7=
EXTT8=
EXTT9=
PLAYORDER=
